<svg width="421" height="174" viewBox="0 0 421 174" fill="none" xmlns="http://www.w3.org/2000/svg">
<path d="M320.776 55.32V65.544H337.264V75.048H320.776V86.136H339.424V96H308.464V45.456H339.424V55.32H320.776ZM359.801 96.576C356.297 96.576 353.177 95.976 350.441 94.776C347.705 93.576 345.545 91.944 343.961 89.88C342.377 87.768 341.489 85.416 341.297 82.824H353.465C353.609 84.216 354.257 85.344 355.409 86.208C356.561 87.072 357.977 87.504 359.657 87.504C361.193 87.504 362.369 87.216 363.185 86.64C364.049 86.016 364.481 85.224 364.481 84.264C364.481 83.112 363.881 82.272 362.681 81.744C361.481 81.168 359.537 80.544 356.849 79.872C353.969 79.2 351.569 78.504 349.649 77.784C347.729 77.016 346.073 75.84 344.681 74.256C343.289 72.624 342.593 70.44 342.593 67.704C342.593 65.4 343.217 63.312 344.465 61.44C345.761 59.52 347.633 58.008 350.081 56.904C352.577 55.8 355.529 55.248 358.937 55.248C363.977 55.248 367.937 56.496 370.817 58.992C373.745 61.488 375.425 64.8 375.857 68.928H364.481C364.289 67.536 363.665 66.432 362.609 65.616C361.601 64.8 360.257 64.392 358.577 64.392C357.137 64.392 356.033 64.68 355.265 65.256C354.497 65.784 354.113 66.528 354.113 67.488C354.113 68.64 354.713 69.504 355.913 70.08C357.161 70.656 359.081 71.232 361.673 71.808C364.649 72.576 367.073 73.344 368.945 74.112C370.817 74.832 372.449 76.032 373.841 77.712C375.281 79.344 376.025 81.552 376.073 84.336C376.073 86.688 375.401 88.8 374.057 90.672C372.761 92.496 370.865 93.936 368.369 94.992C365.921 96.048 363.065 96.576 359.801 96.576ZM420.686 55.824L395.486 115.08H382.238L391.454 94.632L375.11 55.824H388.862L398.15 80.952L407.366 55.824H420.686Z" fill="black"/>
<path d="M42.984 61.728C42.984 64.656 42.312 67.344 40.968 69.792C39.624 72.192 37.56 74.136 34.776 75.624C31.992 77.112 28.536 77.856 24.408 77.856H16.776V96H4.464V45.456H24.408C28.44 45.456 31.848 46.152 34.632 47.544C37.416 48.936 39.504 50.856 40.896 53.304C42.288 55.752 42.984 58.56 42.984 61.728ZM23.472 68.064C25.824 68.064 27.576 67.512 28.728 66.408C29.88 65.304 30.456 63.744 30.456 61.728C30.456 59.712 29.88 58.152 28.728 57.048C27.576 55.944 25.824 55.392 23.472 55.392H16.776V68.064H23.472ZM42.9857 75.84C42.9857 71.712 43.7537 68.088 45.2897 64.968C46.8737 61.848 49.0097 59.448 51.6977 57.768C54.3857 56.088 57.3857 55.248 60.6977 55.248C63.5297 55.248 66.0017 55.824 68.1137 56.976C70.2737 58.128 71.9297 59.64 73.0817 61.512V55.824H85.3937V96H73.0817V90.312C71.8817 92.184 70.2017 93.696 68.0417 94.848C65.9297 96 63.4577 96.576 60.6257 96.576C57.3617 96.576 54.3857 95.736 51.6977 94.056C49.0097 92.328 46.8737 89.904 45.2897 86.784C43.7537 83.616 42.9857 79.968 42.9857 75.84ZM73.0817 75.912C73.0817 72.84 72.2177 70.416 70.4897 68.64C68.8097 66.864 66.7457 65.976 64.2977 65.976C61.8497 65.976 59.7617 66.864 58.0337 68.64C56.3537 70.368 55.5137 72.768 55.5137 75.84C55.5137 78.912 56.3537 81.36 58.0337 83.184C59.7617 84.96 61.8497 85.848 64.2977 85.848C66.7457 85.848 68.8097 84.96 70.4897 83.184C72.2177 81.408 73.0817 78.984 73.0817 75.912ZM102.653 62.52C104.093 60.312 105.893 58.584 108.053 57.336C110.213 56.04 112.613 55.392 115.253 55.392V68.424H111.869C108.797 68.424 106.493 69.096 104.957 70.44C103.421 71.736 102.653 74.04 102.653 77.352V96H90.3409V55.824H102.653V62.52ZM141.73 96L129.49 79.152V96H117.178V42.72H129.49V72.168L141.658 55.824H156.85L140.146 75.984L156.994 96H141.73Z" fill="black"/>
<mask id="path-3-inside-1_214_2" fill="white">
<path fill-rule="evenodd" clip-rule="evenodd" d="M202 0C180.461 0 163 17.4609 163 39V99C163 120.539 180.461 138 202 138H208.379L230.5 174L252.621 138H259C280.539 138 298 120.539 298 99V39C298 17.4609 280.539 0 259 0H202Z"/>
</mask>
<path fill-rule="evenodd" clip-rule="evenodd" d="M202 0C180.461 0 163 17.4609 163 39V99C163 120.539 180.461 138 202 138H208.379L230.5 174L252.621 138H259C280.539 138 298 120.539 298 99V39C298 17.4609 280.539 0 259 0H202Z" fill="#FFBF1A"/>
<path d="M208.379 138L213.491 134.859L211.735 132H208.379V138ZM230.5 174L225.388 177.141L230.5 185.461L235.612 177.141L230.5 174ZM252.621 138V132H249.265L247.509 134.859L252.621 138ZM169 39C169 20.7746 183.775 6 202 6V-6C177.147 -6 157 14.1472 157 39H169ZM169 99V39H157V99H169ZM202 132C183.775 132 169 117.225 169 99H157C157 123.853 177.147 144 202 144V132ZM208.379 132H202V144H208.379V132ZM235.612 170.859L213.491 134.859L203.267 141.141L225.388 177.141L235.612 170.859ZM247.509 134.859L225.388 170.859L235.612 177.141L257.733 141.141L247.509 134.859ZM259 132H252.621V144H259V132ZM292 99C292 117.225 277.225 132 259 132V144C283.853 144 304 123.853 304 99H292ZM292 39V99H304V39H292ZM259 6C277.225 6 292 20.7746 292 39H304C304 14.1472 283.853 -6 259 -6V6ZM202 6H259V-6H202V6Z" fill="#A91EFF" fill-opacity="0.5" mask="url(#path-3-inside-1_214_2)"/>
<path d="M217.982 94.7223H243.025C243.442 94.7223 243.784 94.3805 243.784 93.9628V85.9885C243.784 85.5708 243.442 85.229 243.025 85.229H239.23C238.813 85.229 238.471 85.5708 238.471 85.9885V89.4061H222.535V85.9885C222.535 85.5708 222.194 85.229 221.776 85.229H217.982C217.565 85.229 217.223 85.5708 217.223 85.9885V93.9628C217.223 94.3805 217.565 94.7223 217.982 94.7223ZM250.234 83.0456C250.234 84.0527 250.634 85.0186 251.345 85.7307C252.057 86.4428 253.022 86.8429 254.028 86.8429C255.035 86.8429 256 86.4428 256.711 85.7307C257.423 85.0186 257.823 84.0527 257.823 83.0456C257.823 82.0385 257.423 81.0726 256.711 80.3605C256 79.6484 255.035 79.2483 254.028 79.2483C253.022 79.2483 252.057 79.6484 251.345 80.3605C250.634 81.0726 250.234 82.0385 250.234 83.0456ZM272.905 67.1349L270.657 63.2047C270.556 63.0315 270.391 62.9053 270.197 62.8537C270.003 62.8021 269.797 62.8293 269.623 62.9294L264.814 65.7394L257.386 45.215C256.994 43.9903 256.223 42.922 255.185 42.1644C254.147 41.4068 252.894 40.999 251.609 41H210.507C207.216 41 204.294 43.1265 203.279 46.2688L196.202 65.7489L191.384 62.9389C191.21 62.8388 191.004 62.8116 190.81 62.8632C190.616 62.9147 190.451 63.0409 190.35 63.2142L188.102 67.1349C187.893 67.4957 188.016 67.9513 188.377 68.1602L194.106 71.5018L192.731 75.2991C192.617 75.6029 192.56 75.9257 192.56 76.2484V109.304C192.56 110.794 193.679 112 195.055 112H201.467C202.634 112 203.649 111.117 203.896 109.883L204.626 106.304H256.381L257.111 109.883C257.367 111.117 258.373 112 259.54 112H265.952C267.327 112 268.447 110.794 268.447 109.304V76.2484C268.447 75.9257 268.39 75.6029 268.276 75.2991L266.901 71.5018L272.621 68.1602C272.793 68.0607 272.919 67.8975 272.972 67.7058C273.026 67.514 273.001 67.309 272.905 67.1349ZM261.617 76.9699V99.4689H199.39V76.9699L200.87 72.8878H260.137L261.617 76.9699ZM209.701 48.5946L209.748 48.4712L209.786 48.3478C209.891 48.0345 210.175 47.8256 210.507 47.8256H251.069L258.221 67.5716H202.805L209.701 48.5946ZM203.184 83.0456C203.184 84.0527 203.584 85.0186 204.295 85.7307C205.007 86.4428 205.972 86.8429 206.978 86.8429C207.985 86.8429 208.95 86.4428 209.661 85.7307C210.373 85.0186 210.773 84.0527 210.773 83.0456C210.773 82.0385 210.373 81.0726 209.661 80.3605C208.95 79.6484 207.985 79.2483 206.978 79.2483C205.972 79.2483 205.007 79.6484 204.295 80.3605C203.584 81.0726 203.184 82.0385 203.184 83.0456Z" fill="white"/>
</svg>
