<svg width="289" height="289" viewBox="0 0 289 289" fill="none" xmlns="http://www.w3.org/2000/svg">
<g filter="url(#filter0_d_208_2)">
<rect x="11" y="11" width="259" height="259" rx="129.5" fill="white"/>
<mask id="path-2-inside-1_208_2" fill="white">
<path fill-rule="evenodd" clip-rule="evenodd" d="M100 52C78.4609 52 61 69.4609 61 91V175.533C61 197.072 78.4609 214.533 100 214.533H114.447L140.5 256.933L166.553 214.533H181C202.539 214.533 220 197.072 220 175.533V91C220 69.4609 202.539 52 181 52H100Z"/>
</mask>
<path fill-rule="evenodd" clip-rule="evenodd" d="M100 52C78.4609 52 61 69.4609 61 91V175.533C61 197.072 78.4609 214.533 100 214.533H114.447L140.5 256.933L166.553 214.533H181C202.539 214.533 220 197.072 220 175.533V91C220 69.4609 202.539 52 181 52H100Z" fill="#FFBF1A"/>
<path d="M114.447 214.533L118.707 211.916L117.243 209.533H114.447V214.533ZM140.5 256.933L136.24 259.551L140.5 266.484L144.76 259.551L140.5 256.933ZM166.553 214.533V209.533H163.757L162.293 211.916L166.553 214.533ZM66 91C66 72.2223 81.2223 57 100 57V47C75.6995 47 56 66.6995 56 91H66ZM66 175.533V91H56V175.533H66ZM100 209.533C81.2223 209.533 66 194.311 66 175.533H56C56 199.834 75.6995 219.533 100 219.533V209.533ZM114.447 209.533H100V219.533H114.447V209.533ZM144.76 254.316L118.707 211.916L110.187 217.151L136.24 259.551L144.76 254.316ZM162.293 211.916L136.24 254.316L144.76 259.551L170.813 217.151L162.293 211.916ZM181 209.533H166.553V219.533H181V209.533ZM215 175.533C215 194.311 199.778 209.533 181 209.533V219.533C205.301 219.533 225 199.834 225 175.533H215ZM215 91V175.533H225V91H215ZM181 57C199.778 57 215 72.2223 215 91H225C225 66.6995 205.301 47 181 47V57ZM100 57H181V47H100V57Z" fill="#A91EFF" fill-opacity="0.5" mask="url(#path-2-inside-1_208_2)"/>
<path d="M125.757 163.562H155.251C155.743 163.562 156.145 163.159 156.145 162.667V153.275C156.145 152.783 155.743 152.381 155.251 152.381H150.782C150.291 152.381 149.889 152.783 149.889 153.275V157.3H131.119V153.275C131.119 152.783 130.717 152.381 130.226 152.381H125.757C125.265 152.381 124.863 152.783 124.863 153.275V162.667C124.863 163.159 125.265 163.562 125.757 163.562ZM163.742 149.809C163.742 150.995 164.213 152.133 165.051 152.972C165.889 153.81 167.026 154.282 168.211 154.282C169.396 154.282 170.533 153.81 171.371 152.972C172.209 152.133 172.68 150.995 172.68 149.809C172.68 148.623 172.209 147.486 171.371 146.647C170.533 145.808 169.396 145.337 168.211 145.337C167.026 145.337 165.889 145.808 165.051 146.647C164.213 147.486 163.742 148.623 163.742 149.809ZM190.444 131.07L187.796 126.441C187.677 126.237 187.482 126.088 187.254 126.028C187.026 125.967 186.783 125.999 186.578 126.117L180.914 129.426L172.166 105.253C171.704 103.811 170.796 102.553 169.573 101.66C168.35 100.768 166.876 100.288 165.362 100.289H116.953C113.076 100.289 109.635 102.793 108.44 106.494L100.105 129.438L94.4297 126.128C94.225 126.01 93.9821 125.978 93.754 126.039C93.5258 126.1 93.3309 126.248 93.2119 126.452L90.5641 131.07C90.3183 131.495 90.4635 132.032 90.8881 132.278L97.6361 136.213L96.0161 140.686C95.882 141.043 95.815 141.424 95.815 141.804V180.736C95.815 182.491 97.1333 183.911 98.7533 183.911H106.306C107.68 183.911 108.875 182.871 109.166 181.418L110.026 177.203H170.982L171.842 181.418C172.144 182.871 173.328 183.911 174.702 183.911H182.255C183.875 183.911 185.193 182.491 185.193 180.736V141.804C185.193 141.424 185.126 141.043 184.992 140.686L183.372 136.213L190.109 132.278C190.312 132.16 190.46 131.968 190.523 131.742C190.586 131.517 190.557 131.275 190.444 131.07ZM177.149 142.653V169.152H103.859V142.653L105.602 137.846H175.406L177.149 142.653ZM116.003 109.234L116.059 109.088L116.104 108.943C116.227 108.574 116.562 108.328 116.953 108.328H164.725L173.149 131.584H107.881L116.003 109.234ZM108.328 149.809C108.328 150.995 108.799 152.133 109.637 152.972C110.475 153.81 111.612 154.282 112.797 154.282C113.982 154.282 115.119 153.81 115.957 152.972C116.795 152.133 117.266 150.995 117.266 149.809C117.266 148.623 116.795 147.486 115.957 146.647C115.119 145.808 113.982 145.337 112.797 145.337C111.612 145.337 110.475 145.808 109.637 146.647C108.799 147.486 108.328 148.623 108.328 149.809Z" fill="white"/>
</g>
<defs>
<filter id="filter0_d_208_2" x="0" y="0" width="289" height="289" filterUnits="userSpaceOnUse" color-interpolation-filters="sRGB">
<feFlood flood-opacity="0" result="BackgroundImageFix"/>
<feColorMatrix in="SourceAlpha" type="matrix" values="0 0 0 0 0 0 0 0 0 0 0 0 0 0 0 0 0 0 127 0" result="hardAlpha"/>
<feOffset dx="4" dy="4"/>
<feGaussianBlur stdDeviation="7.5"/>
<feComposite in2="hardAlpha" operator="out"/>
<feColorMatrix type="matrix" values="0 0 0 0 0 0 0 0 0 0 0 0 0 0 0 0 0 0 0.15 0"/>
<feBlend mode="normal" in2="BackgroundImageFix" result="effect1_dropShadow_208_2"/>
<feBlend mode="normal" in="SourceGraphic" in2="effect1_dropShadow_208_2" result="shape"/>
</filter>
</defs>
</svg>
